<?xml version="1.0" encoding="UTF-8"?>
<svg id="Layer_1" data-name="Layer 1" xmlns="http://www.w3.org/2000/svg" viewBox="0 0 168.69 188.87">
  <defs>
    <style>
      .cls-1 {
        fill: #fff;
        stroke-width: 0px;
      }
    </style>
  </defs>
  <path class="cls-1" d="M168.69,41.65v43.03h-13.86v-44.25c0-15.1-12.24-27.34-27.34-27.34H41.91c-15.1,0-27.34,12.24-27.34,27.34v44.25H.57v-43.03C.57,18.64,19.21,0,42.22,0h84.82c23,0,41.65,18.64,41.65,41.65Z"/>
  <path class="cls-1" d="M41.38,175.78l34.98-.1v13.1l-34.48.09c-23,.06-41.7-18.54-41.76-41.54l-.11-43.03,13.86-.04.11,44.25c.04,15.1,12.31,27.31,27.41,27.26Z"/>
  <path class="cls-1" d="M168.23,146.89c.06,23-18.54,41.7-41.54,41.76l-35.62.1v-13.09l35.89-.1c15.1-.04,27.31-12.31,27.26-27.41l-.11-44.25,14.01-.04.11,43.03Z"/>
  <polygon class="cls-1" points="31.48 52.99 31.48 151.52 71.43 151.52 71.78 132.64 50.26 132.64 50.26 73.28 31.48 52.99"/>
  <polygon class="cls-1" points="136.73 127.38 136.73 28.86 96.78 28.86 96.43 47.74 117.95 47.74 117.95 107.09 136.73 127.38"/>
  <path class="cls-1" d="M138.99,150.86c-7.11.41-14.21.81-21.32,1.22-28.49-39.73-56.99-79.46-85.48-119.19,7.04-.47,14.08-.95,21.12-1.42,28.56,39.8,57.12,79.59,85.68,119.39Z"/>
</svg>